<svg xmlns="http://www.w3.org/2000/svg" viewBox="0 0 120 140" width="120" height="140" role="img" aria-label="Solar Pro 4 的 Q 版形象">
<title>Solar Pro 4</title>
<g>
  <g transform="translate(98 112)"><ellipse rx="13" ry="8" fill="#fddbc2" stroke="#3a3a46" stroke-width="2.4"/><path d="M12 0 L20 -7 L20 7 Z" fill="#fddbc2" stroke="#3a3a46" stroke-width="2.2" stroke-linejoin="round"/><circle cx="-5" cy="-2" r="1.7" fill="#2b2a33"/></g>
  <circle cx="60" cy="54" r="45" fill="none" stroke="#ae510f" stroke-width="2.2" opacity="0.38" stroke-dasharray="7 6"/><circle cx="60" cy="9" r="3.6" fill="#f97316"/><circle cx="14" cy="72" r="2.8" fill="#f97316" opacity="0.8"/><circle cx="106" cy="76" r="2.4" fill="#f97316" opacity="0.65"/>
  <ellipse cx="60" cy="130" rx="32" ry="6.5" fill="#000" opacity="0.12"/>
  <rect x="48" y="112" width="9" height="16" rx="4.5" fill="#fb9a57" stroke="#3a3a46" stroke-width="2.2"/>
  <rect x="63" y="112" width="9" height="16" rx="4.5" fill="#fb9a57" stroke="#3a3a46" stroke-width="2.2"/>
  <rect x="44" y="122" width="14" height="9" rx="4" fill="#ae510f" stroke="#3a3a46" stroke-width="2.2"/>
  <rect x="62" y="122" width="14" height="9" rx="4" fill="#ae510f" stroke="#3a3a46" stroke-width="2.2"/>
  <path d="M36 80 q24 -8 48 0 l5 34 q-29 9 -58 0 Z" fill="#fddbc2" stroke="#3a3a46" stroke-width="2.6" stroke-linejoin="round"/>
  <rect x="24" y="84" width="10" height="26" rx="5" fill="#fb9a57" stroke="#3a3a46" stroke-width="2.4"/>
  <rect x="86" y="84" width="10" height="26" rx="5" fill="#fb9a57" stroke="#3a3a46" stroke-width="2.4"/>
  <path d="M44 79 q16 7 32 0 l-2 7 q-14 6 -28 0 Z" fill="#f97316" stroke="#3a3a46" stroke-width="2.2" stroke-linejoin="round"/>
  <g transform="translate(34 30)"><path d="M0 4 C -8 -14, -22 -18, -24 -8 C -22 4, -8 8, 0 8 Z" fill="#fddbc2" stroke="#3a3a46" stroke-width="2.4" stroke-linejoin="round"/></g>
  <g transform="translate(86 30)"><path d="M0 4 C 8 -14, 22 -18, 24 -8 C 22 4, 8 8, 0 8 Z" fill="#fddbc2" stroke="#3a3a46" stroke-width="2.4" stroke-linejoin="round"/></g>
  <circle cx="60" cy="52" r="33" fill="#ffe3cd" stroke="#3a3a46" stroke-width="2.8"/>
  <path d="M27 50 a33 33 0 0 1 66 0 q-14 -14 -33 -12 q-19 2 -33 12 Z" fill="#fcb27f" stroke="#3a3a46" stroke-width="2.4" stroke-linejoin="round"/>
  <path d="M41 24 q10 -8 20 -2 q-9 2 -20 2 Z" fill="#ae510f" opacity="0.55"/>
  <ellipse cx="48" cy="58" rx="6.6" ry="8" fill="#2b2a33"/><ellipse cx="72" cy="58" rx="6.6" ry="8" fill="#2b2a33"/>
       <circle cx="50.6" cy="54.6" r="2.6" fill="#fff"/><circle cx="74.6" cy="54.6" r="2.6" fill="#fff"/>
  <ellipse cx="36" cy="66" rx="6" ry="3.6" fill="#f97316" opacity="0.28"/>
  <ellipse cx="84" cy="66" rx="6" ry="3.6" fill="#f97316" opacity="0.28"/>
  <path d="M56 72 q4 4 8 0" fill="none" stroke="#3a3a46" stroke-width="2.4" stroke-linecap="round"/>
  
  <g transform="translate(60 22)"><rect x="-24" y="-8" width="6" height="20" rx="2" fill="#fddbc2" stroke="#3a3a46" stroke-width="2"/><rect x="18" y="-8" width="6" height="20" rx="2" fill="#fddbc2" stroke="#3a3a46" stroke-width="2"/><path d="M-24 -8 A24 16 0 0 1 24 -8" fill="none" stroke="#3a3a46" stroke-width="3"/></g>
  <rect x="36" y="104" width="48" height="6" rx="3" fill="#ae510f" opacity="0.85"/><rect x="52" y="102" width="7" height="10" rx="2" fill="#fdc7a2" stroke="#3a3a46" stroke-width="1.6"/><circle cx="12" cy="98" r="3" fill="#f97316" opacity="0.8"/><circle cx="108" cy="94" r="3" fill="#f97316" opacity="0.8"/><circle cx="6" cy="116" r="2.4" fill="#f97316" opacity="0.55"/>
  
</g>
</svg>